# xmcd
#
# Track frame offsets:
#	150
#	15525
#	34050
#	51376
#	61801
#	79726
#	94876
#	109577
#	123002
#	137477
#	154877
#
# Disc length: 2272 seconds
# Revision: 1
# Processed by: cddbd v1.5.2PL0 Copyright (c) Steve Scherf et al.
# Submitted via: dBpowerAMP V12.0
#
DISCID=8408de0b
DTITLE=Balsam Range - Aeonic
DYEAR=2018
DGENRE=Bluegrass
TTITLE0=The Girl Who Invented the Wheel
TTITLE1=Tumbleweed Town
TTITLE2=The Rambler
TTITLE3=Get Me Gone
TTITLE4=Hobo Blues
TTITLE5=Help Me to Hold On
TTITLE6=Let My Life Be a Light
TTITLE7=My Cross to Bear
TTITLE8=Graveyard Blues
TTITLE9=Angel Too Soon
TTITLE10=If I Needed Someone
EXTD=
EXTT0=
EXTT1=
EXTT2=
EXTT3=
EXTT4=
EXTT5=
EXTT6=
EXTT7=
EXTT8=
EXTT9=
EXTT10=
PLAYORDER=
